<svg height="682pt" viewBox="-21 -21 682.66714 682" width="682pt" xmlns="http://www.w3.org/2000/svg"><path d="m445.257812 572.34375c-4.070312-9.84375-15.351562-14.515625-25.1875-10.445312-9.839843 4.074218-14.519531 15.351562-10.441406 25.195312l12.308594 29.742188c4.074219 9.84375 15.359375 14.511718 25.191406 10.4375 9.839844-4.070313 14.515625-15.351563 10.445313-25.1875zm0 0"/><path d="m194.742188 68.320312c3.074218 7.425782 10.257812 11.914063 17.820312 11.914063 13.683594 0 23.074219-13.949219 17.8125-26.664063l-12.3125-29.742187c-4.074219-9.839844-15.351562-14.511719-25.191406-10.4375-9.839844 4.070313-14.515625 15.351563-10.4375 25.1875zm0 0"/><path d="m420.070312 78.761719c9.847657 4.074219 21.121094-.605469 25.1875-10.441407l12.316407-29.742187c4.070312-9.835937-.605469-21.117187-10.445313-25.1875-9.839844-4.078125-21.117187.597656-25.191406 10.4375l-12.308594 29.742187c-4.078125 9.839844.601563 21.117188 10.441406 25.191407zm0 0"/><path d="m219.933594 561.898438c-9.839844-4.070313-21.121094.601562-25.191406 10.445312l-12.316407 29.742188c-4.070312 9.835937.605469 21.117187 10.445313 25.1875 9.839844 4.078124 21.117187-.605469 25.191406-10.4375l12.308594-29.742188c4.078125-9.84375-.59375-21.117188-10.4375-25.195312zm0 0"/><path d="m613.308594 420.960938-26.535156-11c-9.839844-4.078126-21.121094.589843-25.195313 10.429687-4.082031 9.839844.589844 21.117187 10.421875 25.195313l26.539062 11c9.855469 4.082031 21.125-.601563 25.199219-10.429688 4.078125-9.832031-.589843-21.117188-10.429687-25.195312zm0 0"/><path d="m26.691406 219.703125 26.542969 11c9.84375 4.078125 21.117187-.601563 25.195313-10.429687 4.074218-9.839844-.59375-21.117188-10.429688-25.195313l-26.542969-11c-9.835937-4.078125-21.121093.589844-25.195312 10.429687-4.078125 9.832032.589843 21.117188 10.429687 25.195313zm0 0"/><path d="m586.773438 230.703125 26.535156-11c9.835937-4.078125 14.507812-15.363281 10.425781-25.195313-4.078125-9.839843-15.355469-14.507812-25.195313-10.429687l-26.539062 11c-9.835938 4.078125-14.503906 15.355469-10.429688 25.195313 4.082032 9.839843 15.363282 14.507812 25.203126 10.429687zm0 0"/><path d="m53.234375 409.960938-26.542969 11c-9.839844 4.078124-14.507812 15.355468-10.429687 25.195312 4.082031 9.839844 15.359375 14.507812 25.199219 10.429688l26.539062-11c9.835938-4.078126 14.503906-15.355469 10.429688-25.195313-4.082032-9.835937-15.359376-14.507813-25.195313-10.429687zm0 0"/><path d="m338.304688 275.042969v-48.792969c0-9.652344-3.558594-13.769531-11.917969-13.769531-8.222657 0-11.734375 4.117187-11.734375 13.769531v48.792969c0 9.644531 3.511718 13.753906 11.734375 13.753906 8.359375 0 11.917969-4.109375 11.917969-13.753906zm0 0"/><path d="m190.410156 424.96875v-37.316406c0-7.441406-2.867187-10.773438-9.316406-10.773438h-9.179688v58.847656h9.179688c6.449219 0 9.316406-3.316406 9.316406-10.757812zm0 0"/><path d="m363.421875 415.84375h11.503906l-5.742187-21.109375zm0 0"/><path d="m632.917969 305.410156-93.113281-76.128906 12.015624-119.660156c1.214844-12.121094-8.988281-22.324219-21.109374-21.109375l-119.660157 12.015625-76.125-93.113282c-7.753906-9.5-22.21875-9.382812-29.847656 0l-76.128906 93.113282-119.660157-12.015625c-12.121093-1.214844-22.324218 8.988281-21.109374 21.109375l12.015624 119.660156-93.113281 76.128906c-9.441406 7.675782-9.445312 22.164063 0 29.847656l93.113281 76.125-12.015624 119.660157c-1.214844 12.121093 8.988281 22.324219 21.109374 21.109375l119.660157-12.015625 76.128906 93.113281c7.640625 9.402344 22.105469 9.484375 29.847656 0l76.125-93.113281 119.660157 12.015625c12.121093 1.214844 22.324218-8.988282 21.109374-21.109375l-12.015624-119.660157 93.113281-76.125c9.441406-7.679687 9.445312-22.167968 0-29.847656zm-247.046875 150.464844-4.207032-15.457031h-24.832031l-4.164062 15.324219c-4.179688 13.359374-31.960938 5.273437-28.515625-8.472657l26.839844-88.050781c4.089843-13.320312 32.175781-13.613281 36.351562-.015625h.015625l26.941406 87.890625c3.496094 14.074219-24.34375 21.90625-28.429687 8.78125zm-100.527344-61.925781c13.742188 0 13.972656 24.566406 0 24.566406h-17.96875v17.210937h34.972656c13.960938 0 13.835938 26.878907 0 26.878907h-51.296875c-6.46875 0-13.4375-3.300781-13.4375-10.550781v-91.488282c0-7.261718 6.96875-10.566406 13.4375-10.566406h51.296875c14.117188 0 13.730469 26.878906 0 26.878906h-34.972656v17.070313zm-129.753906-43.949219h25.503906c25.207031 0 39.09375 13.367188 39.09375 37.652344v37.316406c0 24.269531-13.886719 37.636719-39.09375 37.636719h-25.503906c-8.816406 0-13.4375-5.226563-13.4375-10.410157v-91.78125c0-5.171874 4.621094-10.414062 13.4375-10.414062zm68-41.441406v-45.25h-27.328125v45.25c0 18.007812-38.039063 17.992187-38.039063 0v-117.117188c0-17.714844 38.039063-17.933594 38.039063 0v40.460938h27.328125v-40.460938c0-17.714844 38.035156-17.972656 38.035156 0v117.117188c0 18.109375-38.035156 17.8125-38.035156 0zm53.027344-33.515625v-48.792969c0-31.03125 17.675781-48.113281 49.769531-48.113281 32.21875 0 49.957031 17.082031 49.957031 48.113281v48.792969c0 31.019531-17.738281 48.117187-49.957031 48.117187-32.09375 0-49.769531-17.097656-49.769531-48.117187zm117.542968-96.90625h79.546875c17.855469 0 17.75 35.089843 0 35.089843h-20.761719v95.332032c0 17.988281-38.039062 18.007812-38.039062 0v-95.332032h-20.746094c-17.699218 0-17.886718-35.089843 0-35.089843zm93.515625 257.589843c13.566407 0 13.550781 26.878907 0 26.878907h-45.515625c-6.480468 0-13.449218-3.300781-13.449218-10.550781v-91.640626c0-13.871093 29.761718-14.027343 29.761718 0v75.3125zm0 0"/></svg>